<svg width="25.000000" height="25.000000" viewBox="0 0 25 25" fill="none" xmlns="http://www.w3.org/2000/svg" xmlns:xlink="http://www.w3.org/1999/xlink">
	<desc>
			Created with Pixso.
	</desc>
	<defs>
		<clipPath id="clip200_600">
			<rect id="Информация" width="25.000000" height="25.000000" fill="white" fill-opacity="0"/>
		</clipPath>
	</defs>
	<g clip-path="url(#clip200_600)">
		<path id="path" d="M12.5 22.9165C15.3765 22.9165 17.981 21.7507 19.8657 19.8655C21.751 17.9805 22.917 15.3765 22.917 12.5C22.917 9.62354 21.751 7.01929 19.8657 5.13428C17.981 3.24927 15.3765 2.08325 12.5 2.08325C9.62354 2.08325 7.01953 3.24927 5.13428 5.13428C3.24951 7.01929 2.0835 9.62354 2.0835 12.5C2.0835 15.3765 3.24951 17.9805 5.13428 19.8655C7.01953 21.7507 9.62354 22.9165 12.5 22.9165Z" fill="#000000" fill-opacity="0" fill-rule="nonzero"/>
		<path id="path" d="M19.8657 19.8655C21.751 17.9805 22.917 15.3765 22.917 12.5C22.917 9.62354 21.751 7.01929 19.8657 5.13428C17.981 3.24927 15.3765 2.08325 12.5 2.08325C9.62354 2.08325 7.01953 3.24927 5.13428 5.13428C3.24951 7.01929 2.0835 9.62354 2.0835 12.5C2.0835 15.3765 3.24951 17.9805 5.13428 19.8655C7.01953 21.7507 9.62354 22.9165 12.5 22.9165C15.3765 22.9165 17.981 21.7507 19.8657 19.8655Z" stroke="#DE6363" stroke-opacity="1.000000" stroke-width="1.500000" stroke-linejoin="round"/>
		<path id="path" d="M12.5 5.72925C13.2188 5.72925 13.8018 6.31226 13.8018 7.03125C13.8018 7.75049 13.2188 8.3335 12.5 8.3335C11.7808 8.3335 11.1978 7.75049 11.1978 7.03125C11.1978 6.31226 11.7808 5.72925 12.5 5.72925Z" fill="#DE6363" fill-opacity="1.000000" fill-rule="evenodd"/>
		<path id="path" d="M13.4902 17.6885L13.5103 17.7085C13.5103 18.1284 13.1802 18.4585 12.7603 18.4585C12.3403 18.4585 12.0103 18.1284 12.0103 17.7085L12.0303 17.6885L13.4902 17.6885ZM11.7388 11.1467L11.7188 11.1667C11.2988 11.1667 10.9688 10.8367 10.9688 10.4167C10.9688 9.99683 11.2988 9.66675 11.7188 9.66675L11.7388 9.68677L11.7388 11.1467Z" fill="#000000" fill-opacity="0" fill-rule="nonzero"/>
		<path id="path" d="M12.7603 17.7085L12.7603 10.4167L12.2397 10.4167L11.7188 10.4167" stroke="#DE6363" stroke-opacity="1.000000" stroke-width="1.500000" stroke-linejoin="round" stroke-linecap="round"/>
		<path id="path" d="M10.9575 18.4382L10.9375 18.4583C10.5176 18.4583 10.1875 18.1282 10.1875 17.7083C10.1875 17.2883 10.5176 16.9583 10.9375 16.9583L10.9575 16.9783L10.9575 18.4382ZM14.5635 16.9783L14.5835 16.9583C15.0034 16.9583 15.3335 17.2883 15.3335 17.7083C15.3335 18.1282 15.0034 18.4583 14.5835 18.4583L14.5635 18.4382L14.5635 16.9783Z" fill="#000000" fill-opacity="0" fill-rule="nonzero"/>
		<path id="path" d="M10.9375 17.7083L14.5835 17.7083" stroke="#DE6363" stroke-opacity="1.000000" stroke-width="1.500000" stroke-linejoin="round" stroke-linecap="round"/>
	</g>
</svg>
