<svg width="48.000000" height="35.000000" viewBox="0 0 48 35" fill="none" xmlns="http://www.w3.org/2000/svg" xmlns:xlink="http://www.w3.org/1999/xlink">
	<desc>
			Created with Pixso.
	</desc>
	<defs/>
	<path id="path" d="M40.6606 2.93115C37.4934 1.53613 34.1924 0.559082 30.7578 0C30.2896 0.80542 29.8667 1.63232 29.4893 2.48083C25.8259 1.94971 22.1626 1.94971 18.4993 2.48083C18.1216 1.63245 17.6987 0.805542 17.2307 0C13.7942 0.563721 10.4907 1.54321 7.32031 2.93848C1.05322 11.8591 -0.645508 20.5583 0.203857 29.134C3.90112 31.7622 7.94971 33.7175 12.3491 35C13.3342 33.7253 14.2014 32.3801 14.9504 30.9646C13.5273 30.4534 12.1621 29.8262 10.854 29.0831C11.1978 28.8434 11.5337 28.5964 11.8584 28.3567C13.7576 29.2159 15.7312 29.8657 17.7795 30.3059C19.8276 30.7462 21.9011 30.9663 24 30.9663C26.0986 30.9663 28.1721 30.7462 30.2205 30.3059C32.2686 29.8657 34.2422 29.2159 36.1414 28.3567C36.47 28.6146 36.8059 28.8616 37.1458 29.0831C35.8352 29.8274 34.4673 30.4557 33.042 30.9683C33.79 32.3832 34.6572 33.7271 35.6431 35C40.0466 33.7225 44.0977 31.7684 47.7959 29.1376C48.7927 19.1926 46.0933 10.5734 40.6606 2.93115ZM16.0264 23.86C13.6592 23.86 11.7036 21.7932 11.7036 19.2507C11.7036 16.7081 13.5913 14.6233 16.0188 14.6233C18.4463 14.6233 20.387 16.7081 20.3455 19.2507C20.304 21.7932 18.4387 23.86 16.0264 23.86ZM31.9734 23.86C29.6025 23.86 27.6545 21.7932 27.6545 19.2507C27.6545 16.7081 29.5422 14.6233 31.9734 14.6233C34.4048 14.6233 36.3303 16.7081 36.2888 19.2507C36.2471 21.7932 34.386 23.86 31.9734 23.86Z" fill="#FFFFFF" fill-opacity="1.000000" fill-rule="nonzero"/>
</svg>
