<svg width="24.000000" height="24.000000" viewBox="0 0 24 24" fill="none" xmlns="http://www.w3.org/2000/svg" xmlns:xlink="http://www.w3.org/1999/xlink">
	<desc>
			Created with Pixso.
	</desc>
	<defs>
		<clipPath id="clip200_460">
			<rect id="Почта" width="24.000000" height="24.000000" fill="white" fill-opacity="0"/>
		</clipPath>
	</defs>
	<g clip-path="url(#clip200_460)">
		<path id="path" d="M2 19.5L22 19.5L22 12L22 4.5L12 4.5L2 4.5L2 12L2 19.5Z" fill="#000000" fill-opacity="0" fill-rule="nonzero"/>
		<path id="path" d="M22 19.5L22 12L22 4.5L12 4.5L2 4.5L2 12L2 19.5L22 19.5Z" stroke="#D1CAFF" stroke-opacity="1.000000" stroke-width="1.500000" stroke-linejoin="round"/>
		<path id="path" d="M1.57812 5.09595L1.5498 5.1001C1.21387 4.8479 1.14795 4.38599 1.3999 4.05005C1.65186 3.71411 2.11377 3.64795 2.4502 3.8999L2.4541 3.92798L1.57812 5.09595ZM21.5459 3.92798L21.5498 3.8999C21.8862 3.64795 22.3481 3.71411 22.6001 4.05005C22.8521 4.38599 22.7861 4.8479 22.4502 5.1001L22.4219 5.09595L21.5459 3.92798Z" fill="#000000" fill-opacity="0" fill-rule="nonzero"/>
		<path id="path" d="M2 4.5L12 12L22 4.5" stroke="#D1CAFF" stroke-opacity="1.000000" stroke-width="1.500000" stroke-linejoin="round" stroke-linecap="round"/>
		<path id="path" d="M11.98 3.77002L12 3.75C12.4199 3.75 12.75 4.08008 12.75 4.5C12.75 4.91992 12.4199 5.25 12 5.25L11.98 5.22998L11.98 3.77002ZM2.72998 11.98L2.75 12C2.75 12.4199 2.41992 12.75 2 12.75C1.58008 12.75 1.25 12.4199 1.25 12L1.27002 11.98L2.72998 11.98Z" fill="#000000" fill-opacity="0" fill-rule="nonzero"/>
		<path id="path" d="M12 4.5L2 4.5L2 12" stroke="#D1CAFF" stroke-opacity="1.000000" stroke-width="1.500000" stroke-linejoin="round" stroke-linecap="round"/>
		<path id="path" d="M22.73 11.98L22.75 12C22.75 12.4199 22.4199 12.75 22 12.75C21.5801 12.75 21.25 12.4199 21.25 12L21.27 11.98L22.73 11.98ZM12.02 5.22998L12 5.25C11.5801 5.25 11.25 4.91992 11.25 4.5C11.25 4.08008 11.5801 3.75 12 3.75L12.02 3.77002L12.02 5.22998Z" fill="#000000" fill-opacity="0" fill-rule="nonzero"/>
		<path id="path" d="M22 12L22 4.5L12 4.5" stroke="#D1CAFF" stroke-opacity="1.000000" stroke-width="1.500000" stroke-linejoin="round" stroke-linecap="round"/>
	</g>
</svg>
