<svg width="20.000000" height="20.000000" viewBox="0 0 20 20" fill="none" xmlns="http://www.w3.org/2000/svg" xmlns:xlink="http://www.w3.org/1999/xlink">
	<desc>
			Created with Pixso.
	</desc>
	<defs>
		<clipPath id="clip111_242">
			<rect id="Полка для документов" width="20.000000" height="20.000000" fill="white" fill-opacity="0"/>
		</clipPath>
	</defs>
	<g clip-path="url(#clip111_242)">
		<path id="path" d="M13.3333 2.5L9.16663 2.5L9.16663 17.5L13.3333 17.5L13.3333 2.5Z" fill="#000000" fill-opacity="0" fill-rule="nonzero"/>
		<path id="path" d="M9.16663 2.5L9.16663 17.5L13.3333 17.5L13.3333 2.5L9.16663 2.5Z" stroke="#FFFFFF" stroke-opacity="1.000000" stroke-width="1.500000" stroke-linejoin="round"/>
		<path id="path" d="M17.5001 2.5L13.3334 2.5L13.3334 17.5L17.5001 17.5L17.5001 2.5Z" fill="#000000" fill-opacity="0" fill-rule="nonzero"/>
		<path id="path" d="M13.3334 2.5L13.3334 17.5L17.5001 17.5L17.5001 2.5L13.3334 2.5Z" stroke="#FFFFFF" stroke-opacity="1.000000" stroke-width="1.500000" stroke-linejoin="round"/>
		<path id="path" d="M4.16669 2.5L7.5 2.91667L6.04169 17.5L2.5 17.0833L4.16669 2.5Z" fill="#000000" fill-opacity="0" fill-rule="nonzero"/>
		<path id="path" d="M7.5 2.91667L6.04169 17.5L2.5 17.0833L4.16669 2.5L7.5 2.91667Z" stroke="#FFFFFF" stroke-opacity="1.000000" stroke-width="1.500000" stroke-linejoin="round"/>
		<path id="path" d="M14.6866 6.27L14.6666 6.25C14.6666 5.83 14.9966 5.5 15.4166 5.5C15.8366 5.5 16.1666 5.83 16.1666 6.25L16.1466 6.27L14.6866 6.27ZM16.1466 7.48L16.1666 7.5C16.1666 7.92 15.8366 8.25 15.4166 8.25C14.9966 8.25 14.6666 7.92 14.6666 7.5L14.6866 7.48L16.1466 7.48Z" fill="#000000" fill-opacity="0" fill-rule="nonzero"/>
		<path id="path" d="M15.4166 6.25L15.4166 7.5" stroke="#FFFFFF" stroke-opacity="1.000000" stroke-width="1.500000" stroke-linejoin="round" stroke-linecap="round"/>
		<path id="path" d="M10.52 6.27L10.5 6.25C10.5 5.83 10.83 5.5 11.25 5.5C11.67 5.5 12 5.83 12 6.25L11.98 6.27L10.52 6.27ZM11.98 7.48L12 7.5C12 7.92 11.67 8.25 11.25 8.25C10.83 8.25 10.5 7.92 10.5 7.5L10.52 7.48L11.98 7.48Z" fill="#000000" fill-opacity="0" fill-rule="nonzero"/>
		<path id="path" d="M11.25 6.25L11.25 7.5" stroke="#FFFFFF" stroke-opacity="1.000000" stroke-width="1.500000" stroke-linejoin="round" stroke-linecap="round"/>
	</g>
</svg>
