<svg width="20.000000" height="20.000000" viewBox="0 0 20 20" fill="none" xmlns="http://www.w3.org/2000/svg" xmlns:xlink="http://www.w3.org/1999/xlink">
	<desc>
			Created with Pixso.
	</desc>
	<defs>
		<clipPath id="clip111_248">
			<rect id="Банковская карта" width="20.000000" height="20.000000" fill="white" fill-opacity="0"/>
		</clipPath>
	</defs>
	<g clip-path="url(#clip111_248)">
		<path id="path" d="M1.66663 4.16659C1.66663 3.70634 2.03973 3.33325 2.49994 3.33325L17.4999 3.33325C17.9602 3.33325 18.3333 3.70634 18.3333 4.16659L18.3333 15.8333C18.3333 16.2935 17.9602 16.6666 17.4999 16.6666L2.49994 16.6666C2.03973 16.6666 1.66663 16.2935 1.66663 15.8333L1.66663 4.16659Z" fill="#000000" fill-opacity="0" fill-rule="nonzero"/>
		<path id="path" d="M2.49994 3.33325L17.4999 3.33325C17.9602 3.33325 18.3333 3.70634 18.3333 4.16659L18.3333 15.8333C18.3333 16.2935 17.9602 16.6666 17.4999 16.6666L2.49994 16.6666C2.03973 16.6666 1.66663 16.2935 1.66663 15.8333L1.66663 4.16659C1.66663 3.70634 2.03973 3.33325 2.49994 3.33325Z" stroke="#FFFFFF" stroke-opacity="1.000000" stroke-width="1.500000" stroke-linejoin="round"/>
		<path id="path" d="M1.68665 7.39675L1.66663 7.41675C1.24664 7.41675 0.916626 7.08675 0.916626 6.66675C0.916626 6.24675 1.24664 5.91675 1.66663 5.91675L1.68665 5.93674L1.68665 7.39675ZM18.3132 5.93675L18.3333 5.91675C18.7532 5.91675 19.0833 6.24675 19.0833 6.66675C19.0833 7.08675 18.7532 7.41675 18.3333 7.41675L18.3132 7.39674L18.3132 5.93675Z" fill="#000000" fill-opacity="0" fill-rule="nonzero"/>
		<path id="path" d="M1.66663 6.66675L18.3333 6.66675" stroke="#FFFFFF" stroke-opacity="1.000000" stroke-width="1.500000" stroke-linejoin="round" stroke-linecap="round"/>
		<path id="path" d="M11.27 14.0633L11.25 14.0833C10.83 14.0833 10.5 13.7533 10.5 13.3333C10.5 12.9133 10.83 12.5833 11.25 12.5833L11.27 12.6032L11.27 14.0633ZM14.98 12.6032L15 12.5833C15.42 12.5833 15.75 12.9133 15.75 13.3333C15.75 13.7533 15.42 14.0833 15 14.0833L14.98 14.0633L14.98 12.6032Z" fill="#000000" fill-opacity="0" fill-rule="nonzero"/>
		<path id="path" d="M11.25 13.3333L15 13.3333" stroke="#FFFFFF" stroke-opacity="1.000000" stroke-width="1.500000" stroke-linejoin="round" stroke-linecap="round"/>
		<path id="path" d="M17.6034 4.18674L17.5834 4.16675C17.5834 3.74675 17.9134 3.41675 18.3334 3.41675C18.7534 3.41675 19.0834 3.74675 19.0834 4.16675L19.0634 4.18674L17.6034 4.18674ZM19.0634 10.8135L19.0834 10.8335C19.0834 11.2535 18.7534 11.5835 18.3334 11.5835C17.9134 11.5835 17.5834 11.2535 17.5834 10.8335L17.6034 10.8135L19.0634 10.8135Z" fill="#000000" fill-opacity="0" fill-rule="nonzero"/>
		<path id="path" d="M18.3334 4.16675L18.3334 10.8335" stroke="#FFFFFF" stroke-opacity="1.000000" stroke-width="1.500000" stroke-linejoin="round" stroke-linecap="round"/>
		<path id="path" d="M0.936646 4.18674L0.916626 4.16675C0.916626 3.74675 1.24664 3.41675 1.66663 3.41675C2.08661 3.41675 2.41663 3.74675 2.41663 4.16675L2.39661 4.18674L0.936646 4.18674ZM2.39661 10.8135L2.41663 10.8335C2.41663 11.2535 2.08661 11.5835 1.66663 11.5835C1.24664 11.5835 0.916626 11.2535 0.916626 10.8335L0.936646 10.8135L2.39661 10.8135Z" fill="#000000" fill-opacity="0" fill-rule="nonzero"/>
		<path id="path" d="M1.66663 4.16675L1.66663 10.8335" stroke="#FFFFFF" stroke-opacity="1.000000" stroke-width="1.500000" stroke-linejoin="round" stroke-linecap="round"/>
	</g>
</svg>
