<svg width="20.000000" height="20.000000" viewBox="0 0 20 20" fill="none" xmlns="http://www.w3.org/2000/svg" xmlns:xlink="http://www.w3.org/1999/xlink">
	<desc>
			Created with Pixso.
	</desc>
	<defs>
		<clipPath id="clip89_150">
			<rect id="Индикатор" width="20.000000" height="20.000000" fill="white" fill-opacity="0"/>
		</clipPath>
	</defs>
	<g clip-path="url(#clip89_150)">
		<path id="path" d="M9.02002 1.68661L9 1.66663C9 1.10663 9.44 0.666626 10 0.666626C10.56 0.666626 11 1.10663 11 1.66663L10.98 1.68661L9.02002 1.68661ZM10.98 17.0633L11 17.0833C11 17.6433 10.56 18.0833 10 18.0833C9.44 18.0833 9 17.6433 9 17.0833L9.02002 17.0633L10.98 17.0633Z" fill="#000000" fill-opacity="0" fill-rule="nonzero"/>
		<path id="path" d="M10 1.66663L10 17.0833" stroke="#B8B7FF" stroke-opacity="1.000000" stroke-width="2.000000" stroke-linejoin="round" stroke-linecap="round"/>
		<path id="path" d="M10 3.33331L16.4773 3.33331L17.5 4.99997L16.4773 6.66666L10 6.66666L10 3.33331Z" fill="#000000" fill-opacity="0" fill-rule="nonzero"/>
		<path id="path" d="M16.4773 3.33331L17.5 4.99997L16.4773 6.66666L10 6.66666L10 3.33331L16.4773 3.33331Z" stroke="#B8B7FF" stroke-opacity="1.000000" stroke-width="2.000000" stroke-linejoin="round"/>
		<path id="path" d="M10 9.16669L3.52271 9.16669L2.5 10.8333L3.52271 12.5L10 12.5L10 9.16669Z" fill="#000000" fill-opacity="0" fill-rule="nonzero"/>
		<path id="path" d="M3.52271 9.16669L2.5 10.8333L3.52271 12.5L10 12.5L10 9.16669L3.52271 9.16669Z" stroke="#B8B7FF" stroke-opacity="1.000000" stroke-width="2.000000" stroke-linejoin="round"/>
		<path id="path" d="M6.68677 18.48L6.66675 18.5C6.10675 18.5 5.66675 18.06 5.66675 17.5C5.66675 16.94 6.10675 16.5 6.66675 16.5L6.68677 16.52L6.68677 18.48ZM13.3134 16.52L13.3334 16.5C13.8934 16.5 14.3334 16.94 14.3334 17.5C14.3334 18.06 13.8934 18.5 13.3334 18.5L13.3134 18.48L13.3134 16.52Z" fill="#000000" fill-opacity="0" fill-rule="nonzero"/>
		<path id="path" d="M6.66675 17.5L13.3334 17.5" stroke="#B8B7FF" stroke-opacity="1.000000" stroke-width="2.000000" stroke-linejoin="round" stroke-linecap="round"/>
	</g>
</svg>
