<svg width="22.000000" height="22.000000" viewBox="0 0 22 22" fill="none" xmlns="http://www.w3.org/2000/svg" xmlns:xlink="http://www.w3.org/1999/xlink">
	<desc>
			Created with Pixso.
	</desc>
	<defs>
		<clipPath id="clip164_192">
			<rect id="Индикатор" width="22.000000" height="22.000000" fill="white" fill-opacity="0"/>
		</clipPath>
	</defs>
	<g clip-path="url(#clip164_192)">
		<path id="path" d="M10.27 1.85327L10.25 1.83325C10.25 1.41333 10.5801 1.08325 11 1.08325C11.4199 1.08325 11.75 1.41333 11.75 1.83325L11.73 1.85327L10.27 1.85327ZM11.73 18.7715L11.75 18.7915C11.75 19.2114 11.4199 19.5415 11 19.5415C10.5801 19.5415 10.25 19.2114 10.25 18.7915L10.27 18.7715L11.73 18.7715Z" fill="#000000" fill-opacity="0" fill-rule="nonzero"/>
		<path id="path" d="M11 1.83325L11 18.7915" stroke="#FFFFFF" stroke-opacity="1.000000" stroke-width="1.500000" stroke-linejoin="round" stroke-linecap="round"/>
		<path id="path" d="M11 3.66675L18.125 3.66675L19.25 5.5L18.125 7.3335L11 7.3335L11 3.66675Z" fill="#000000" fill-opacity="0" fill-rule="nonzero"/>
		<path id="path" d="M18.125 3.66675L19.25 5.5L18.125 7.3335L11 7.3335L11 3.66675L18.125 3.66675Z" stroke="#FFFFFF" stroke-opacity="1.000000" stroke-width="1.500000" stroke-linejoin="round"/>
		<path id="path" d="M11 10.0833L3.875 10.0833L2.75 11.9165L3.875 13.75L11 13.75L11 10.0833Z" fill="#000000" fill-opacity="0" fill-rule="nonzero"/>
		<path id="path" d="M3.875 10.0833L2.75 11.9165L3.875 13.75L11 13.75L11 10.0833L3.875 10.0833Z" stroke="#FFFFFF" stroke-opacity="1.000000" stroke-width="1.500000" stroke-linejoin="round"/>
		<path id="path" d="M7.35327 19.98L7.33325 20C6.91333 20 6.58325 19.6699 6.58325 19.25C6.58325 18.8301 6.91333 18.5 7.33325 18.5L7.35327 18.52L7.35327 19.98ZM14.6465 18.52L14.6665 18.5C15.0864 18.5 15.4165 18.8301 15.4165 19.25C15.4165 19.6699 15.0864 20 14.6665 20L14.6465 19.98L14.6465 18.52Z" fill="#000000" fill-opacity="0" fill-rule="nonzero"/>
		<path id="path" d="M7.33325 19.25L14.6665 19.25" stroke="#FFFFFF" stroke-opacity="1.000000" stroke-width="1.500000" stroke-linejoin="round" stroke-linecap="round"/>
	</g>
</svg>
