<svg width="22.000000" height="22.000000" viewBox="0 0 22 22" fill="none" xmlns="http://www.w3.org/2000/svg" xmlns:xlink="http://www.w3.org/1999/xlink">
	<desc>
			Created with Pixso.
	</desc>
	<defs>
		<clipPath id="clip164_188">
			<rect id="Женщина" width="22.000000" height="22.000000" fill="white" fill-opacity="0"/>
		</clipPath>
	</defs>
	<g clip-path="url(#clip164_188)">
		<path id="path" d="M15.4194 11.7244L15.4194 11.7527C15.1226 12.0496 14.6558 12.0496 14.3589 11.7527C14.0618 11.4558 14.0618 10.989 14.3589 10.6921L14.387 10.6921L15.4194 11.7244ZM7.61304 10.6921L7.64111 10.6921C7.93823 10.989 7.93823 11.4558 7.64111 11.7527C7.34424 12.0496 6.87744 12.0496 6.58057 11.7527L6.58057 11.7244L7.61304 10.6921Z" fill="#000000" fill-opacity="0" fill-rule="nonzero"/>
		<path id="path" d="M14.8892 11.2224C15.8845 10.2271 16.5 8.85205 16.5 7.33325C16.5 4.29565 14.0376 1.83325 11 1.83325C7.9624 1.83325 5.5 4.29565 5.5 7.33325C5.5 8.85205 6.11548 10.2271 7.11084 11.2224" stroke="#FFFFFF" stroke-opacity="1.000000" stroke-width="1.500000" stroke-linecap="round"/>
		<path id="path" d="M3.46973 20.29L3.48535 20.3137C3.40308 20.7256 3.01465 20.9844 2.60303 20.9021C2.19116 20.8196 1.93213 20.4314 2.01465 20.0195L2.03809 20.0039L3.46973 20.29ZM19.9619 20.0039L19.9854 20.0195C20.0679 20.4314 19.8088 20.8196 19.397 20.9021C18.9854 20.9844 18.5969 20.7256 18.5146 20.3137L18.5303 20.29L19.9619 20.0039Z" fill="#000000" fill-opacity="0" fill-rule="nonzero"/>
		<path id="path" d="M2.75 20.1665L3.20825 17.875L8.25 14.2083L11 16.9583L13.75 14.2083L18.7917 17.875L19.25 20.1665" stroke="#FFFFFF" stroke-opacity="1.000000" stroke-width="1.500000" stroke-linejoin="round" stroke-linecap="round"/>
		<path id="path" d="" fill="#000000" fill-opacity="0" fill-rule="nonzero"/>
		<path id="path" d="M5.95532 9.62817C5.96118 7.74414 6.26758 6.36816 6.875 5.5C7.78613 4.19775 8.42749 4.29346 8.89404 4.49634C9.36084 4.69897 9.63525 6.02441 10.415 6.40649C11.1946 6.78833 13.1897 6.83545 13.873 7.29517C14.5566 7.75464 16.1194 8.60938 15.7297 10.0688" stroke="#FFFFFF" stroke-opacity="1.000000" stroke-width="1.500000"/>
	</g>
</svg>
