<svg width="22.000000" height="22.000000" viewBox="0 0 22 22" fill="none" xmlns="http://www.w3.org/2000/svg" xmlns:xlink="http://www.w3.org/1999/xlink">
	<desc>
			Created with Pixso.
	</desc>
	<defs>
		<clipPath id="clip164_183">
			<rect id="Почта" width="22.000000" height="22.000000" fill="white" fill-opacity="0"/>
		</clipPath>
	</defs>
	<g clip-path="url(#clip164_183)">
		<path id="path" d="M1.83325 17.875L20.1665 17.875L20.1665 11L20.1665 4.125L11 4.125L1.83325 4.125L1.83325 11L1.83325 17.875Z" fill="#000000" fill-opacity="0" fill-rule="nonzero"/>
		<path id="path" d="M20.1665 17.875L20.1665 11L20.1665 4.125L11 4.125L1.83325 4.125L1.83325 11L1.83325 17.875L20.1665 17.875Z" stroke="#FFFFFF" stroke-opacity="1.000000" stroke-width="1.500000" stroke-linejoin="round"/>
		<path id="path" d="M1.41113 4.72095L1.3833 4.7251C1.04736 4.4729 0.981201 4.01099 1.23315 3.67505C1.48535 3.33911 1.94727 3.27295 2.2832 3.5249L2.28735 3.55298L1.41113 4.72095ZM19.7126 3.55298L19.7166 3.5249C20.0525 3.27295 20.5146 3.33911 20.7666 3.67505C21.0186 4.01099 20.9526 4.4729 20.6167 4.7251L20.5886 4.72095L19.7126 3.55298Z" fill="#000000" fill-opacity="0" fill-rule="nonzero"/>
		<path id="path" d="M1.83325 4.125L11 11L20.1665 4.125" stroke="#FFFFFF" stroke-opacity="1.000000" stroke-width="1.500000" stroke-linejoin="round" stroke-linecap="round"/>
		<path id="path" d="M10.98 3.39502L11 3.375C11.4199 3.375 11.75 3.70508 11.75 4.125C11.75 4.54492 11.4199 4.875 11 4.875L10.98 4.85498L10.98 3.39502ZM2.56323 10.98L2.58325 11C2.58325 11.4199 2.25317 11.75 1.83325 11.75C1.41333 11.75 1.08325 11.4199 1.08325 11L1.10327 10.98L2.56323 10.98Z" fill="#000000" fill-opacity="0" fill-rule="nonzero"/>
		<path id="path" d="M11 4.125L1.83325 4.125L1.83325 11" stroke="#FFFFFF" stroke-opacity="1.000000" stroke-width="1.500000" stroke-linejoin="round" stroke-linecap="round"/>
		<path id="path" d="M20.8967 10.98L20.9167 11C20.9167 11.4199 20.5867 11.75 20.1667 11.75C19.7466 11.75 19.4167 11.4199 19.4167 11L19.4368 10.98L20.8967 10.98ZM11.02 4.85498L11 4.875C10.5801 4.875 10.25 4.54492 10.25 4.125C10.25 3.70508 10.5801 3.375 11 3.375L11.02 3.39502L11.02 4.85498Z" fill="#000000" fill-opacity="0" fill-rule="nonzero"/>
		<path id="path" d="M20.1667 11L20.1667 4.125L11 4.125" stroke="#FFFFFF" stroke-opacity="1.000000" stroke-width="1.500000" stroke-linejoin="round" stroke-linecap="round"/>
	</g>
</svg>
