<svg width="22.000000" height="22.000000" viewBox="0 0 22 22" fill="none" xmlns="http://www.w3.org/2000/svg" xmlns:xlink="http://www.w3.org/1999/xlink">
	<desc>
			Created with Pixso.
	</desc>
	<defs>
		<clipPath id="clip164_159">
			<rect id="Домой" width="22.000000" height="22.000000" fill="white" fill-opacity="0"/>
		</clipPath>
	</defs>
	<g clip-path="url(#clip164_159)">
		<path id="path" d="M4.125 8.25L4.125 19.25L17.875 19.25L17.875 8.25L11 2.75L4.125 8.25Z" fill="#000000" fill-opacity="0" fill-rule="nonzero"/>
		<path id="path" d="M4.125 19.25L17.875 19.25L17.875 8.25L11 2.75L4.125 8.25L4.125 19.25Z" stroke="#FFFFFF" stroke-opacity="1.000000" stroke-width="1.500000" stroke-linejoin="round"/>
		<path id="path" d="M8.70825 13.2917L8.70825 19.25L13.2915 19.25L13.2915 13.2917L8.70825 13.2917Z" fill="#000000" fill-opacity="0" fill-rule="nonzero"/>
		<path id="path" d="M8.70825 19.25L13.2915 19.25L13.2915 13.2917L8.70825 13.2917L8.70825 19.25Z" stroke="#FFFFFF" stroke-opacity="1.000000" stroke-width="1.500000" stroke-linejoin="round"/>
		<path id="path" d="M4.14502 19.98L4.125 20C3.70508 20 3.375 19.6699 3.375 19.25C3.375 18.8301 3.70508 18.5 4.125 18.5L4.14502 18.52L4.14502 19.98ZM17.855 18.52L17.875 18.5C18.2949 18.5 18.625 18.8301 18.625 19.25C18.625 19.6699 18.2949 20 17.875 20L17.855 19.98L17.855 18.52Z" fill="#000000" fill-opacity="0" fill-rule="nonzero"/>
		<path id="path" d="M4.125 19.25L17.875 19.25" stroke="#FFFFFF" stroke-opacity="1.000000" stroke-width="1.500000" stroke-linecap="round"/>
	</g>
</svg>
