<svg width="22.000000" height="22.000000" viewBox="0 0 22 22" fill="none" xmlns="http://www.w3.org/2000/svg" xmlns:xlink="http://www.w3.org/1999/xlink">
	<desc>
			Created with Pixso.
	</desc>
	<defs>
		<clipPath id="clip164_227">
			<rect id="Глаз" width="22.000000" height="22.000000" fill="white" fill-opacity="0"/>
		</clipPath>
	</defs>
	<g clip-path="url(#clip164_227)">
		<path id="path" d="M9.625 17.4167C16.282 18.3334 19.25 13.8774 19.25 11.275C19.25 10.8414 19.1475 10.374 18.9554 9.89636C18.7905 9.48621 18.5597 9.06836 18.2712 8.65771M16.2821 6.65283C14.8511 5.60022 13.0094 4.8584 11 4.8584C6.4436 4.8584 2.75 8.67529 2.75 11.275C2.75 12.7283 3.90417 14.5618 5.7179 15.8965C6.09155 16.1713 6.49304 16.425 6.91821 16.6499" stroke="#A39DC0" stroke-opacity="1.000000" stroke-width="1.500000" stroke-linejoin="round" stroke-dasharray="0 0"/>
		<path id="path" d="M12.9446 9.33044C12.4469 8.83289 11.7594 8.52502 11 8.52502C9.4812 8.52502 8.25 9.75623 8.25 11.275C8.25 12.0344 8.55786 12.7219 9.05542 13.2196" stroke="#A39DC0" stroke-opacity="1.000000" stroke-width="1.500000" stroke-linejoin="round"/>
		<path id="Линия 3" d="M3.30005 19.7999L19.8 3.29993" stroke="#A39DC0" stroke-opacity="1.000000" stroke-width="1.500000" stroke-linecap="round"/>
	</g>
</svg>
