<svg width="24.000000" height="24.000000" viewBox="0 0 24 24" fill="none" xmlns="http://www.w3.org/2000/svg" xmlns:xlink="http://www.w3.org/1999/xlink">
	<desc>
			Created with Pixso.
	</desc>
	<defs>
		<clipPath id="clip138_263">
			<rect id="Глаз" width="24.000000" height="24.000000" fill="white" fill-opacity="0"/>
		</clipPath>
	</defs>
	<g clip-path="url(#clip138_263)">
		<path id="path" d="M12 19.3C16.9705 19.3 21 15.139 21 12.3C21 9.46106 16.9705 5.30005 12 5.30005C7.02954 5.30005 3 9.46399 3 12.3C3 15.1361 7.02954 19.3 12 19.3Z" fill="#000000" fill-opacity="0" fill-rule="evenodd"/>
		<path id="path" d="M21 12.3C21 9.46106 16.9705 5.30005 12 5.30005C7.02954 5.30005 3 9.46399 3 12.3C3 15.1361 7.02954 19.3 12 19.3C16.9705 19.3 21 15.139 21 12.3Z" stroke="#A39DC0" stroke-opacity="1.000000" stroke-width="1.500000" stroke-linejoin="round"/>
		<path id="path" d="M12 15.3C13.6567 15.3 15 13.9569 15 12.3C15 10.6432 13.6567 9.30005 12 9.30005C10.3433 9.30005 9 10.6432 9 12.3C9 13.9569 10.3433 15.3 12 15.3Z" fill="#000000" fill-opacity="0" fill-rule="nonzero"/>
		<path id="path" d="M15 12.3C15 10.6432 13.6567 9.30005 12 9.30005C10.3433 9.30005 9 10.6432 9 12.3C9 13.9569 10.3433 15.3 12 15.3C13.6567 15.3 15 13.9569 15 12.3Z" stroke="#A39DC0" stroke-opacity="1.000000" stroke-width="1.500000" stroke-linejoin="round"/>
	</g>
</svg>
