<svg width="24.000000" height="24.000000" viewBox="0 0 24 24" fill="none" xmlns="http://www.w3.org/2000/svg" xmlns:xlink="http://www.w3.org/1999/xlink">
	<desc>
			Created with Pixso.
	</desc>
	<defs>
		<clipPath id="clip89_143">
			<rect id="Добавить в" width="24.000000" height="24.000000" fill="white" fill-opacity="0"/>
		</clipPath>
	</defs>
	<g clip-path="url(#clip89_143)">
		<path id="path" d="M7.98001 2.01999L8 2C8.56 2 9 2.44 9 3C9 3.56 8.56 4 8 4L7.98001 3.98001L7.98001 2.01999ZM3.98001 7.98001L4 8C4 8.56 3.56 9 3 9C2.44 9 2 8.56 2 8L2.01999 7.98001L3.98001 7.98001Z" fill="#000000" fill-opacity="0" fill-rule="nonzero"/>
		<path id="path" d="M8 3L4 3C3.44772 3 3 3.44772 3 4L3 8" stroke="#28283B" stroke-opacity="1.000000" stroke-width="2.000000" stroke-linejoin="round" stroke-linecap="round"/>
		<path id="path" d="M7.98001 20.02L8 20C8.56 20 9 20.44 9 21C9 21.56 8.56 22 8 22L7.98001 21.98L7.98001 20.02ZM2.01999 16.02L2 16C2 15.44 2.44 15 3 15C3.56 15 4 15.44 4 16L3.98001 16.02L2.01999 16.02Z" fill="#000000" fill-opacity="0" fill-rule="nonzero"/>
		<path id="path" d="M8 21L4 21C3.44772 21 3 20.5523 3 20L3 16" stroke="#28283B" stroke-opacity="1.000000" stroke-width="2.000000" stroke-linejoin="round" stroke-linecap="round"/>
		<path id="path" d="M16.02 21.98L16 22C15.44 22 15 21.56 15 21C15 20.44 15.44 20 16 20L16.02 20.02L16.02 21.98ZM20.02 16.02L20 16C20 15.44 20.44 15 21 15C21.56 15 22 15.44 22 16L21.98 16.02L20.02 16.02Z" fill="#000000" fill-opacity="0" fill-rule="nonzero"/>
		<path id="path" d="M16 21L20 21C20.5523 21 21 20.5523 21 20L21 16" stroke="#28283B" stroke-opacity="1.000000" stroke-width="2.000000" stroke-linejoin="round" stroke-linecap="round"/>
		<path id="path" d="M16.02 3.98001L16 4C15.44 4 15 3.56 15 3C15 2.44 15.44 2 16 2L16.02 2.01999L16.02 3.98001ZM21.98 7.98001L22 8C22 8.56 21.56 9 21 9C20.44 9 20 8.56 20 8L20.02 7.98001L21.98 7.98001Z" fill="#000000" fill-opacity="0" fill-rule="nonzero"/>
		<path id="path" d="M16 3L20 3C20.5523 3 21 3.44772 21 4L21 8" stroke="#28283B" stroke-opacity="1.000000" stroke-width="2.000000" stroke-linejoin="round" stroke-linecap="round"/>
		<path id="path" d="M8.01999 12.98L8 13C7.44 13 7 12.56 7 12C7 11.44 7.44 11 8 11L8.01999 11.02L8.01999 12.98ZM15.98 11.02L16 11C16.56 11 17 11.44 17 12C17 12.56 16.56 13 16 13L15.98 12.98L15.98 11.02Z" fill="#000000" fill-opacity="0" fill-rule="nonzero"/>
		<path id="path" d="M8 12L16 12" stroke="#28283B" stroke-opacity="1.000000" stroke-width="2.000000" stroke-linejoin="round" stroke-linecap="round"/>
		<path id="path" d="M11.02 8.01999L11 8C11 7.44 11.44 7 12 7C12.56 7 13 7.44 13 8L12.98 8.01999L11.02 8.01999ZM12.98 15.98L13 16C13 16.56 12.56 17 12 17C11.44 17 11 16.56 11 16L11.02 15.98L12.98 15.98Z" fill="#000000" fill-opacity="0" fill-rule="nonzero"/>
		<path id="path" d="M12 8L12 16" stroke="#28283B" stroke-opacity="1.000000" stroke-width="2.000000" stroke-linejoin="round" stroke-linecap="round"/>
	</g>
</svg>
