<svg width="24.000000" height="24.000000" viewBox="0 0 24 24" fill="none" xmlns="http://www.w3.org/2000/svg" xmlns:xlink="http://www.w3.org/1999/xlink">
	<desc>
			Created with Pixso.
	</desc>
	<defs>
		<clipPath id="clip111_145">
			<rect id="Под стрелкой" width="24.000000" height="24.000000" fill="white" fill-opacity="0"/>
		</clipPath>
	</defs>
	<g clip-path="url(#clip111_145)">
		<path id="path" d="M10.77 7.01999L10.75 7C10.75 6.29999 11.3 5.75 12 5.75C12.7 5.75 13.25 6.29999 13.25 7L13.23 7.01999L10.77 7.01999ZM13.23 17.98L13.25 18C13.25 18.7 12.7 19.25 12 19.25C11.3 19.25 10.75 18.7 10.75 18L10.77 17.98L13.23 17.98Z" fill="#000000" fill-opacity="0" fill-rule="nonzero"/>
		<path id="path" d="M12 7L12 18" stroke="#E7E7FF" stroke-opacity="1.000000" stroke-width="2.500000" stroke-linejoin="round" stroke-linecap="round"/>
		<path id="path" d="M17.1161 11.1444L17.1161 11.1161C17.6111 10.6212 18.3889 10.6212 18.8839 11.1161C19.3788 11.6111 19.3788 12.3889 18.8839 12.8839L18.8556 12.8839L17.1161 11.1444ZM5.14441 12.8839L5.11609 12.8839C4.62115 12.3889 4.62115 11.6111 5.11609 11.1161C5.61108 10.6212 6.38892 10.6212 6.88391 11.1161L6.88391 11.1444L5.14441 12.8839Z" fill="#000000" fill-opacity="0" fill-rule="nonzero"/>
		<path id="path" d="M18 12L12 18L6 12" stroke="#E7E7FF" stroke-opacity="1.000000" stroke-width="2.500000" stroke-linejoin="round" stroke-linecap="round"/>
	</g>
</svg>
