<svg width="37.000000" height="37.000000" viewBox="0 0 37 37" fill="none" xmlns="http://www.w3.org/2000/svg" xmlns:xlink="http://www.w3.org/1999/xlink">
	<desc>
			Created with Pixso.
	</desc>
	<defs/>
	<path id="path" d="M2.60083 2.60095C0 5.20178 0 9.38782 0 17.76L0 19.24C0 27.6122 0 31.7982 2.60083 34.3992C5.2019 37 9.38794 37 17.76 37L19.24 37C27.6121 37 31.7981 37 34.3992 34.3992C37 31.7982 37 27.6122 37 19.24L37 17.76C37 9.38782 37 5.20178 34.3992 2.60095C31.7981 0 27.6121 0 19.24 0L17.76 0C9.38794 0 5.2019 0 2.60083 2.60095ZM6.2439 11.2543C6.44434 20.8743 11.2542 26.6555 19.687 26.6555L20.165 26.6555L20.165 21.1517C23.2639 21.4601 25.6069 23.7263 26.5474 26.6555L30.9258 26.6555C29.7234 22.2771 26.5627 19.8567 24.5896 18.9318C26.5627 17.7909 29.3379 15.0159 30.0007 11.2543L26.0232 11.2543C25.1599 14.3068 22.6008 17.0817 20.165 17.3438L20.165 11.2543L16.1875 11.2543L16.1875 21.9225C13.7207 21.3059 10.6067 18.3151 10.468 11.2543L6.2439 11.2543Z" fill="#FFFFFF" fill-opacity="1.000000" fill-rule="evenodd"/>
</svg>
